<?xml version="1.0" encoding="UTF-8"?>
<svg xmlns="http://www.w3.org/2000/svg" version="1.1" viewBox="0 0 40 40">
  <!-- Generator: Adobe Illustrator 29.3.1, SVG Export Plug-In . SVG Version: 2.1.0 Build 151)  -->
  <defs>
    <style>
      .st0 {
        fill: none;
        stroke: #98a3b3;
        stroke-miterlimit: 10;
        stroke-width: 2px;
      }

      .st1 {
        fill: #98a3b3;
      }

    </style>
  </defs>
  <g id="render">
    <path class="st1" d="M34,5H6c-1.7,0-3,1.3-3,3v24c0,1.7,1.3,3,3,3h28c1.7,0,3-1.3,3-3V8c0-1.7-1.3-3-3-3ZM6,7h28c.6,0,1,.4,1,1v4H5v-4c0-.6.4-1,1-1ZM27,14v5h-6v-5h6ZM19,19h-6v-5h6v5ZM11,19h-6v-5h6v5ZM11,21v5h-6v-5h6ZM13,21h6v5h-6v-5ZM19,28v5h-6v-5h6ZM21,28h6v5h-6v-5ZM21,26v-5h6v5h-6ZM29,21h6v5h-6v-5ZM29,19v-5h6v5h-6ZM5,32v-4h6v5h-5c-.6,0-1-.4-1-1ZM34,33h-5v-5h6v4c0,.6-.4,1-1,1Z"/>
  </g>
</svg>